<svg width="230" height="196" viewBox="0 0 230 196" fill="none" xmlns="http://www.w3.org/2000/svg">
<rect width="230" height="196" rx="5" fill="#ECEBFF"/>
<path d="M97.8 92H91.95V90.452L93.516 89.732V81.416L91.95 80.696V79.148H97.8V80.696L96.234 81.416V89.732L97.8 90.452V92ZM102.06 79.346C101.904 79.982 101.682 80.678 101.394 81.434C101.106 82.19 100.812 82.898 100.512 83.558H98.5861C98.7541 82.85 98.9221 82.094 99.0901 81.29C99.2581 80.486 99.3841 79.772 99.4681 79.148H101.934L102.06 79.346ZM114.67 81.992C115.786 81.992 116.626 82.28 117.19 82.856C117.766 83.42 118.054 84.332 118.054 85.592V92H115.372V86.258C115.372 84.842 114.88 84.134 113.896 84.134C113.188 84.134 112.684 84.386 112.384 84.89C112.084 85.394 111.934 86.12 111.934 87.068V92H109.252V86.258C109.252 84.842 108.76 84.134 107.776 84.134C107.032 84.134 106.516 84.416 106.228 84.98C105.952 85.532 105.814 86.33 105.814 87.374V92H103.132V82.172H105.184L105.544 83.432H105.688C105.988 82.928 106.396 82.562 106.912 82.334C107.44 82.106 107.986 81.992 108.55 81.992C109.27 81.992 109.882 82.112 110.386 82.352C110.89 82.58 111.274 82.94 111.538 83.432H111.772C112.072 82.928 112.486 82.562 113.014 82.334C113.554 82.106 114.106 81.992 114.67 81.992ZM129.523 81.974C130.843 81.974 131.851 82.262 132.547 82.838C133.255 83.402 133.609 84.272 133.609 85.448V92H131.737L131.215 90.668H131.143C130.723 91.196 130.279 91.58 129.811 91.82C129.343 92.06 128.701 92.18 127.885 92.18C127.009 92.18 126.283 91.928 125.707 91.424C125.131 90.908 124.843 90.122 124.843 89.066C124.843 88.022 125.209 87.254 125.941 86.762C126.673 86.258 127.771 85.982 129.235 85.934L130.945 85.88V85.448C130.945 84.932 130.807 84.554 130.531 84.314C130.267 84.074 129.895 83.954 129.415 83.954C128.935 83.954 128.467 84.026 128.011 84.17C127.555 84.302 127.099 84.47 126.643 84.674L125.761 82.856C126.289 82.58 126.871 82.364 127.507 82.208C128.155 82.052 128.827 81.974 129.523 81.974ZM129.901 87.482C129.037 87.506 128.437 87.662 128.101 87.95C127.765 88.238 127.597 88.616 127.597 89.084C127.597 89.492 127.717 89.786 127.957 89.966C128.197 90.134 128.509 90.218 128.893 90.218C129.469 90.218 129.955 90.05 130.351 89.714C130.747 89.366 130.945 88.88 130.945 88.256V87.446L129.901 87.482ZM69.2373 106.992C70.3413 106.992 71.2353 107.424 71.9193 108.288C72.6033 109.14 72.9453 110.4 72.9453 112.068C72.9453 113.736 72.5913 115.008 71.8833 115.884C71.1753 116.748 70.2693 117.18 69.1653 117.18C68.4573 117.18 67.8933 117.054 67.4733 116.802C67.0533 116.538 66.7113 116.244 66.4473 115.92H66.3033C66.3993 116.424 66.4473 116.904 66.4473 117.36V121.32H63.7653V107.172H65.9433L66.3213 108.45H66.4473C66.7113 108.054 67.0653 107.712 67.5093 107.424C67.9533 107.136 68.5293 106.992 69.2373 106.992ZM68.3733 109.134C67.6773 109.134 67.1853 109.35 66.8973 109.782C66.6213 110.214 66.4713 110.874 66.4473 111.762V112.05C66.4473 112.998 66.5853 113.73 66.8613 114.246C67.1493 114.75 67.6653 115.002 68.4093 115.002C69.0213 115.002 69.4713 114.75 69.7593 114.246C70.0593 113.73 70.2093 112.992 70.2093 112.032C70.2093 110.1 69.5973 109.134 68.3733 109.134ZM77.838 117H75.156V103.32H77.838V117ZM84.6723 106.974C85.9923 106.974 87.0003 107.262 87.6963 107.838C88.4043 108.402 88.7583 109.272 88.7583 110.448V117H86.8863L86.3643 115.668H86.2923C85.8723 116.196 85.4283 116.58 84.9603 116.82C84.4923 117.06 83.8503 117.18 83.0343 117.18C82.1583 117.18 81.4323 116.928 80.8563 116.424C80.2803 115.908 79.9923 115.122 79.9923 114.066C79.9923 113.022 80.3583 112.254 81.0903 111.762C81.8223 111.258 82.9203 110.982 84.3843 110.934L86.0943 110.88V110.448C86.0943 109.932 85.9563 109.554 85.6803 109.314C85.4163 109.074 85.0443 108.954 84.5643 108.954C84.0843 108.954 83.6163 109.026 83.1603 109.17C82.7043 109.302 82.2483 109.47 81.7923 109.674L80.9103 107.856C81.4383 107.58 82.0203 107.364 82.6563 107.208C83.3043 107.052 83.9763 106.974 84.6723 106.974ZM85.0503 112.482C84.1863 112.506 83.5863 112.662 83.2503 112.95C82.9143 113.238 82.7463 113.616 82.7463 114.084C82.7463 114.492 82.8663 114.786 83.1063 114.966C83.3463 115.134 83.6583 115.218 84.0423 115.218C84.6183 115.218 85.1043 115.05 85.5003 114.714C85.8963 114.366 86.0943 113.88 86.0943 113.256V112.446L85.0503 112.482ZM95.4996 117.18C94.0356 117.18 92.9016 116.778 92.0976 115.974C91.3056 115.158 90.9096 113.88 90.9096 112.14C90.9096 110.94 91.1136 109.962 91.5216 109.206C91.9296 108.45 92.4936 107.892 93.2136 107.532C93.9456 107.172 94.7856 106.992 95.7336 106.992C96.4056 106.992 96.9876 107.058 97.4796 107.19C97.9836 107.322 98.4216 107.478 98.7936 107.658L98.0016 109.728C97.5816 109.56 97.1856 109.422 96.8136 109.314C96.4536 109.206 96.0936 109.152 95.7336 109.152C94.3416 109.152 93.6456 110.142 93.6456 112.122C93.6456 113.106 93.8256 113.832 94.1856 114.3C94.5576 114.768 95.0736 115.002 95.7336 115.002C96.2976 115.002 96.7956 114.93 97.2276 114.786C97.6596 114.63 98.0796 114.42 98.4876 114.156V116.442C98.0796 116.706 97.6476 116.892 97.1916 117C96.7476 117.12 96.1836 117.18 95.4996 117.18ZM104.8 106.992C106.156 106.992 107.23 107.382 108.022 108.162C108.814 108.93 109.21 110.028 109.21 111.456V112.752H102.874C102.898 113.508 103.12 114.102 103.54 114.534C103.972 114.966 104.566 115.182 105.322 115.182C105.958 115.182 106.534 115.122 107.05 115.002C107.566 114.87 108.1 114.672 108.652 114.408V116.478C108.172 116.718 107.662 116.892 107.122 117C106.594 117.12 105.952 117.18 105.196 117.18C104.212 117.18 103.342 117 102.586 116.64C101.83 116.268 101.236 115.71 100.804 114.966C100.372 114.222 100.156 113.286 100.156 112.158C100.156 111.006 100.348 110.052 100.732 109.296C101.128 108.528 101.674 107.952 102.37 107.568C103.066 107.184 103.876 106.992 104.8 106.992ZM104.818 108.9C104.302 108.9 103.87 109.068 103.522 109.404C103.186 109.74 102.988 110.262 102.928 110.97H106.69C106.678 110.37 106.522 109.878 106.222 109.494C105.922 109.098 105.454 108.9 104.818 108.9ZM114.066 106.11C114.066 106.59 114.048 107.052 114.012 107.496C113.988 107.94 113.964 108.252 113.94 108.432H114.084C114.396 107.928 114.798 107.562 115.29 107.334C115.782 107.106 116.328 106.992 116.928 106.992C117.996 106.992 118.848 107.28 119.484 107.856C120.132 108.42 120.456 109.332 120.456 110.592V117H117.774V111.258C117.774 109.842 117.246 109.134 116.19 109.134C115.386 109.134 114.828 109.416 114.516 109.98C114.216 110.532 114.066 111.33 114.066 112.374V117H111.384V103.32H114.066V106.11ZM132.143 112.068C132.143 113.7 131.711 114.96 130.847 115.848C129.995 116.736 128.831 117.18 127.355 117.18C126.443 117.18 125.627 116.982 124.907 116.586C124.199 116.19 123.641 115.614 123.233 114.858C122.825 114.09 122.621 113.16 122.621 112.068C122.621 110.436 123.047 109.182 123.899 108.306C124.751 107.43 125.921 106.992 127.409 106.992C128.333 106.992 129.149 107.19 129.857 107.586C130.565 107.982 131.123 108.558 131.531 109.314C131.939 110.058 132.143 110.976 132.143 112.068ZM125.357 112.068C125.357 113.04 125.513 113.778 125.825 114.282C126.149 114.774 126.671 115.02 127.391 115.02C128.099 115.02 128.609 114.774 128.921 114.282C129.245 113.778 129.407 113.04 129.407 112.068C129.407 111.096 129.245 110.37 128.921 109.89C128.609 109.398 128.093 109.152 127.373 109.152C126.665 109.152 126.149 109.398 125.825 109.89C125.513 110.37 125.357 111.096 125.357 112.068ZM137.041 117H134.359V103.32H137.041V117ZM142.957 117.18C141.865 117.18 140.971 116.754 140.275 115.902C139.591 115.038 139.249 113.772 139.249 112.104C139.249 110.424 139.597 109.152 140.293 108.288C140.989 107.424 141.901 106.992 143.029 106.992C143.737 106.992 144.319 107.13 144.775 107.406C145.231 107.682 145.591 108.024 145.855 108.432H145.945C145.909 108.24 145.867 107.964 145.819 107.604C145.771 107.232 145.747 106.854 145.747 106.47V103.32H148.429V117H146.377L145.855 115.722H145.747C145.483 116.13 145.129 116.478 144.685 116.766C144.241 117.042 143.665 117.18 142.957 117.18ZM143.893 115.038C144.637 115.038 145.159 114.822 145.459 114.39C145.759 113.946 145.915 113.286 145.927 112.41V112.122C145.927 111.162 145.777 110.43 145.477 109.926C145.189 109.422 144.649 109.17 143.857 109.17C143.269 109.17 142.807 109.428 142.471 109.944C142.135 110.448 141.967 111.18 141.967 112.14C141.967 113.1 142.135 113.826 142.471 114.318C142.807 114.798 143.281 115.038 143.893 115.038ZM155.284 106.992C156.64 106.992 157.714 107.382 158.506 108.162C159.298 108.93 159.694 110.028 159.694 111.456V112.752H153.358C153.382 113.508 153.604 114.102 154.024 114.534C154.456 114.966 155.05 115.182 155.806 115.182C156.442 115.182 157.018 115.122 157.534 115.002C158.05 114.87 158.584 114.672 159.136 114.408V116.478C158.656 116.718 158.146 116.892 157.606 117C157.078 117.12 156.436 117.18 155.68 117.18C154.696 117.18 153.826 117 153.07 116.64C152.314 116.268 151.72 115.71 151.288 114.966C150.856 114.222 150.64 113.286 150.64 112.158C150.64 111.006 150.832 110.052 151.216 109.296C151.612 108.528 152.158 107.952 152.854 107.568C153.55 107.184 154.36 106.992 155.284 106.992ZM155.302 108.9C154.786 108.9 154.354 109.068 154.006 109.404C153.67 109.74 153.472 110.262 153.412 110.97H157.174C157.162 110.37 157.006 109.878 156.706 109.494C156.406 109.098 155.938 108.9 155.302 108.9ZM167.359 106.992C167.491 106.992 167.647 106.998 167.827 107.01C168.007 107.022 168.151 107.04 168.259 107.064L168.061 109.584C167.977 109.56 167.851 109.542 167.683 109.53C167.527 109.506 167.389 109.494 167.269 109.494C166.813 109.494 166.375 109.578 165.955 109.746C165.535 109.902 165.193 110.16 164.929 110.52C164.677 110.88 164.551 111.372 164.551 111.996V117H161.869V107.172H163.903L164.299 108.828H164.425C164.713 108.324 165.109 107.892 165.613 107.532C166.117 107.172 166.699 106.992 167.359 106.992Z" fill="black"/>
</svg>
